<svg width="62" height="39" viewBox="0 0 62 39" fill="none" xmlns="http://www.w3.org/2000/svg">
<path d="M0.298243 0.799999V38H5.39824V22.5H15.2982C17.6982 22.5 19.4982 23.05 20.6982 24.1C21.8482 25.2 22.4982 27.05 22.6982 29.65C22.7982 31.15 22.8482 32.4 22.9482 33.4C22.9982 34.4 23.0982 35.2 23.1982 35.8C23.2982 36.45 23.3982 36.95 23.5482 37.25C23.6482 37.6 23.8482 37.85 24.0482 38H29.4982V37.75C29.2982 37.65 29.0982 37.4 28.9482 37.1C28.7982 36.8 28.6482 36.3 28.5482 35.7C28.3982 35.1 28.2482 34.3 28.1482 33.3C27.9982 32.3 27.8982 31.1 27.7982 29.6C27.6982 28.3 27.4982 27.1 27.2982 26.1C27.0982 25.1 26.7482 24.25 26.3482 23.55C25.8982 22.85 25.3482 22.2 24.6482 21.7C23.9482 21.2 23.0482 20.8 22.0482 20.5V20.35C24.4982 19.6 26.2482 18.45 27.2982 16.85C28.2982 15.25 28.8482 13.35 28.8482 11.05C28.8482 9.55 28.5482 8.15 28.0482 6.85C27.4982 5.6 26.7482 4.5 25.7482 3.6C24.7482 2.7 23.5982 2.05 22.2482 1.55C20.8482 1.05 19.3482 0.799999 17.6982 0.799999H0.298243ZM5.39824 18.4V5.2H16.2982C18.8982 5.2 20.7982 5.75 21.8982 6.85C22.9982 7.95 23.5982 9.6 23.5982 11.8C23.5982 13.85 22.9482 15.45 21.6982 16.65C20.4482 17.85 18.5482 18.4 16.0482 18.4H5.39824ZM47.458 38.75C49.458 38.75 51.308 38.55 53.008 38.05C54.708 37.55 56.158 36.85 57.408 35.9C58.608 35 59.558 33.85 60.258 32.45C60.958 31.1 61.308 29.55 61.308 27.75C61.308 25.7 60.908 24 60.158 22.65C59.408 21.35 58.408 20.25 57.108 19.4C55.808 18.55 54.358 17.9 52.708 17.4C51.058 16.95 49.358 16.55 47.558 16.15C46.158 15.85 44.858 15.55 43.658 15.25C42.458 14.95 41.458 14.55 40.608 14.05C39.758 13.6 39.108 13.05 38.608 12.35C38.108 11.65 37.908 10.8 37.908 9.8C37.908 7.95 38.608 6.55 40.108 5.55C41.558 4.6 43.508 4.1 46.008 4.1C48.608 4.1 50.708 4.7 52.308 5.9C53.858 7.1 54.808 8.8 55.158 11.05H60.108C59.858 9.45 59.408 8 58.808 6.65C58.158 5.35 57.258 4.2 56.108 3.2C54.958 2.25 53.558 1.5 51.908 0.949997C50.208 0.399998 48.258 0.0999992 45.958 0.0999992C44.058 0.0999992 42.308 0.349999 40.708 0.799999C39.108 1.25 37.758 1.9 36.658 2.75C35.508 3.6 34.608 4.65 34.008 5.85C33.358 7.1 33.058 8.5 33.058 10.05C33.058 11.85 33.358 13.35 34.008 14.5C34.658 15.7 35.558 16.65 36.708 17.45C37.808 18.25 39.108 18.85 40.608 19.3C42.108 19.8 43.658 20.2 45.358 20.5C46.958 20.9 48.458 21.25 49.758 21.6C51.058 22 52.208 22.45 53.158 22.95C54.108 23.5 54.858 24.15 55.358 24.95C55.858 25.75 56.158 26.75 56.158 27.95C56.158 29.1 55.908 30.1 55.508 30.9C55.058 31.75 54.458 32.45 53.708 33C52.958 33.55 52.058 33.95 51.008 34.25C49.958 34.55 48.808 34.65 47.608 34.65C44.208 34.65 41.558 33.95 39.758 32.45C37.908 30.95 36.858 28.8 36.558 25.95H31.508C31.608 27.75 32.008 29.4 32.708 30.95C33.408 32.55 34.408 33.9 35.708 35.05C37.008 36.2 38.658 37.1 40.608 37.75C42.558 38.45 44.858 38.75 47.458 38.75Z" fill="black"/>
</svg>
